<svg xmlns="http://www.w3.org/2000/svg" viewBox="0 0 100 100"><title>logo-rsd-square-panel-top</title><path d="M54.52,17.86c-1.58,14.71-13,26.88-26.61,28.32a.26.26,0,0,0,0,.51H47a.26.26,0,0,0,.17-.45,4.66,4.66,0,0,1-1.47-3.37,5.34,5.34,0,0,1,1.57-4,5,5,0,0,1,4.27-1.37,4.19,4.19,0,0,1,3.06,1.71.26.26,0,0,0,.48-.13V17.89a.26.26,0,0,0-.51,0Zm0,3.23V38.35a5.21,5.21,0,0,0-3-1.37,5.53,5.53,0,0,0-4.7,1.52,5.85,5.85,0,0,0-1.73,4.18c0,.07,0,.13,0,.2a5.2,5.2,0,0,0,1.32,3.29H31C42.48,43.6,51.95,33.51,54.52,21.09Z" fill="#09417a"/><path d="M27.94,53.31a.26.26,0,0,0,0,.51c13.59,1.44,25,13.61,26.61,28.31a.26.26,0,0,0,.51,0V60.93a.26.26,0,0,0-.48-.13,4.19,4.19,0,0,1-3.06,1.72,5,5,0,0,1-4.26-1.37,5.34,5.34,0,0,1-1.57-4,4.66,4.66,0,0,1,1.47-3.38.26.26,0,0,0-.17-.45Zm18.52.51a5.2,5.2,0,0,0-1.32,3.29c0,.07,0,.14,0,.2a5.85,5.85,0,0,0,1.73,4.18A5.52,5.52,0,0,0,51.56,63a5.21,5.21,0,0,0,3-1.37V78.91c-2.57-12.41-12-22.5-23.54-25.08Z" fill="#09417a"/><path d="M64.95,17.63a.26.26,0,0,0-.24.26V39.08a.26.26,0,0,0,.48.13,4.19,4.19,0,0,1,3.06-1.71,5,5,0,0,1,4.26,1.37,5.33,5.33,0,0,1,1.57,4,4.65,4.65,0,0,1-1.47,3.37.25.25,0,0,0-.07.28.26.26,0,0,0,.24.17h19a.26.26,0,0,0,0-.51c-13.59-1.44-25-13.61-26.6-28.32A.26.26,0,0,0,64.95,17.63Zm.27,3.46c2.57,12.42,12,22.5,23.54,25.08H73.28a5.21,5.21,0,0,0,1.32-3.29c0-.07,0-.14,0-.2a5.84,5.84,0,0,0-1.73-4.18A5.52,5.52,0,0,0,68.18,37a5.21,5.21,0,0,0-3,1.37Z" fill="#09417a"/><path d="M72.79,53.31a.26.26,0,0,0-.24.17.25.25,0,0,0,.07.28,4.65,4.65,0,0,1,1.47,3.37,5.34,5.34,0,0,1-1.57,4,5,5,0,0,1-4.26,1.37,4.26,4.26,0,0,1-3.06-1.72.26.26,0,0,0-.48.13V82.11a.26.26,0,0,0,.51,0c1.58-14.7,13-26.87,26.6-28.31a.26.26,0,0,0,0-.51Zm16,.51c-11.5,2.58-21,12.66-23.54,25.08V61.65a5.2,5.2,0,0,0,3,1.37,5.52,5.52,0,0,0,4.69-1.52,5.84,5.84,0,0,0,1.73-4.18c0-.07,0-.14,0-.2a5.2,5.2,0,0,0-1.32-3.29Z" fill="#09417a"/><polygon points="59.15 17.6 56.28 17.6 56.28 46.71 59.15 46.71 59.15 17.6 59.15 17.6" fill="#09417a"/><polygon points="59.15 82.11 56.28 82.11 56.28 53.31 59.15 53.31 59.15 82.11 59.15 82.11" fill="#09417a"/><polygon points="60.59 17.6 63.45 17.6 63.45 46.71 60.59 46.71 60.59 17.6 60.59 17.6" fill="#09417a"/><polygon points="60.59 82.11 63.45 82.11 63.45 53.31 60.59 53.31 60.59 82.11 60.59 82.11" fill="#09417a"/><path d="M27.7,48.69v2.63H92V48.69c-20.81,0-43.51-.25-64.32,0Z" fill="#09417a"/><path d="M47.76,39.82a4,4,0,0,0-1,3.33,5.16,5.16,0,0,0,2.46,3.51.26.26,0,0,0,.13,0h5.46a.26.26,0,0,0,.26-.26V42.11a5,5,0,0,0-3.49-3.63A3.75,3.75,0,0,0,47.76,39.82Zm-.53,3.25a3.73,3.73,0,0,1,0-.53,3.53,3.53,0,0,1,1-2.38A3.19,3.19,0,0,1,51.42,39a4.56,4.56,0,0,1,3.11,3.19s0,3.54,0,4H49.4A4.63,4.63,0,0,1,47.23,43.07Z" fill="#09417a"/><path d="M54.59,53.31H49.31a.25.25,0,0,0-.13,0,5.16,5.16,0,0,0-2.46,3.51,4,4,0,0,0,1,3.33,3.75,3.75,0,0,0,3.78,1.33A5,5,0,0,0,55,58V53.57a.26.26,0,0,0-.26-.26Zm-.07.51v4.06A4.56,4.56,0,0,1,51.42,61a3.19,3.19,0,0,1-3.27-1.17,3.52,3.52,0,0,1-1-2.38,3.71,3.71,0,0,1,0-.53,4.62,4.62,0,0,1,2.17-3.11Z" fill="#09417a"/><path d="M68.2,38.49a5,5,0,0,0-3.48,3.56v4.38a.26.26,0,0,0,.26.26h5.46a.25.25,0,0,0,.13,0A5.16,5.16,0,0,0,73,43.14a4,4,0,0,0-1-3.33A3.75,3.75,0,0,0,68.2,38.49Zm-3,3.63A4.56,4.56,0,0,1,68.32,39a3.19,3.19,0,0,1,3.27,1.17,3.43,3.43,0,0,1,.92,2.91,4.62,4.62,0,0,1-2.17,3.11H65.22Z" fill="#09417a"/><path d="M65.15,53.31H65a.26.26,0,0,0-.26.26v4.32a5,5,0,0,0,3.49,3.63A3.75,3.75,0,0,0,72,60.19a4,4,0,0,0,1-3.33,5.15,5.15,0,0,0-2.46-3.51.25.25,0,0,0-.13,0Zm5.19.51a4.61,4.61,0,0,1,2.17,3.11,3.49,3.49,0,0,1,0,.53,3.52,3.52,0,0,1-1,2.38A3.19,3.19,0,0,1,68.32,61a4.56,4.56,0,0,1-3.11-3.19s0-3.54,0-4Z" fill="#09417a"/><path d="M51.5,15a.26.26,0,0,0-.26.26c0,15.1-12.48,27.92-27.25,28a.26.26,0,0,0-.26.26v13a.26.26,0,0,0,.26.26c14.77.09,27.25,12.91,27.25,28a.26.26,0,0,0,.26.26H68.24a.26.26,0,0,0,.26-.26c0-15.09,12.48-27.92,27.25-28a.26.26,0,0,0,.26-.26v-13a.26.26,0,0,0-.26-.26c-14.77-.09-27.25-12.91-27.25-28a.26.26,0,0,0-.26-.26ZM68,15.51c.14,15.17,12.64,28,27.49,28.25V56.24C80.63,56.47,68.13,69.32,68,84.49H51.74c-.14-15.17-12.64-28-27.49-28.25V43.77C39.1,43.53,51.6,30.69,51.74,15.51Z" fill="#09417a"/></svg>